{
	"asset":{
		"generator":"Khronos glTF Blender I/O v4.0.44",
		"version":"2.0"
	},
	"scene":0,
	"scenes":[
		{
			"name":"Scene",
			"nodes":[
				0,
				1,
				2,
				3,
				4,
				5,
				6,
				7,
				8,
				9,
				10,
				11
			]
		}
	],
	"nodes":[
		{
			"mesh":0,
			"name":"propylon-court-walls"
		},
		{
			"mesh":1,
			"name":"propylon-court-floor"
		},
		{
			"mesh":2,
			"name":"propylon-walls"
		},
		{
			"mesh":3,
			"name":"propylon-court-cornice"
		},
		{
			"mesh":4,
			"name":"decke.001",
			"rotation":[
				0,
				-0.7071070671081543,
				0,
				0.7071065902709961
			],
			"scale":[
				0.6399999856948853,
				0.7122379541397095,
				0.7122379541397095
			],
			"translation":[
				12.29830265045166,
				7.7733330726623535,
				-10.960845947265625
			]
		},
		{
			"mesh":5,
			"name":"decke.002",
			"rotation":[
				0,
				-0.7071070671081543,
				0,
				0.7071065902709961
			],
			"scale":[
				0.6399999856948853,
				0.7122379541397095,
				0.7122379541397095
			],
			"translation":[
				-15.582711219787598,
				7.78139591217041,
				-10.969070434570312
			]
		},
		{
			"mesh":6,
			"name":"decke.003",
			"rotation":[
				0,
				-0.7071070671081543,
				0,
				0.7071065902709961
			],
			"scale":[
				0.6399999856948853,
				0.7122379541397095,
				0.7122379541397095
			],
			"translation":[
				-10.93293571472168,
				7.78139591217041,
				-38.25008010864258
			]
		},
		{
			"mesh":7,
			"name":"propylon-cornice"
		},
		{
			"mesh":8,
			"name":"propylon-court-roof"
		},
		{
			"mesh":9,
			"name":"Plane.001",
			"scale":[
				0.038314785808324814,
				0.038314785808324814,
				0.038314785808324814
			],
			"translation":[
				0,
				36,
				0
			]
		},
		{
			"mesh":10,
			"name":"Plane",
			"scale":[
				0.009999990463256836,
				0.009999990463256836,
				0.009999990463256836
			]
		},
		{
			"mesh":11,
			"name":"Plane.002",
			"scale":[
				6.324864387512207,
				6.324864387512207,
				6.324864387512207
			],
			"translation":[
				30.617422103881836,
				3.785994529724121,
				-24.05621910095215
			]
		}
	],
	"materials":[
		{
			"doubleSided":true,
			"name":"propylon-court-walls.001",
			"occlusionTexture":{
				"index":0
			},
			"pbrMetallicRoughness":{
				"baseColorTexture":{
					"index":1
				},
				"metallicFactor":0,
				"roughnessFactor":0.5
			}
		},
		{
			"doubleSided":true,
			"name":"propylon-court-floor.001",
			"pbrMetallicRoughness":{
				"baseColorTexture":{
					"index":2,
					"texCoord":1
				},
				"metallicFactor":0,
				"roughnessFactor":0.5
			}
		},
		{
			"doubleSided":true,
			"name":"propylon-walls.002",
			"pbrMetallicRoughness":{
				"baseColorTexture":{
					"index":3,
					"texCoord":1
				},
				"metallicFactor":0,
				"roughnessFactor":0.5
			}
		},
		{
			"doubleSided":true,
			"name":"propylon-cornice.002",
			"pbrMetallicRoughness":{
				"baseColorTexture":{
					"index":4,
					"texCoord":1
				},
				"metallicFactor":0,
				"roughnessFactor":0.5
			}
		},
		{
			"doubleSided":true,
			"name":"Global_Metal",
			"occlusionTexture":{
				"index":5
			},
			"pbrMetallicRoughness":{
				"baseColorFactor":[
					0.11170888692140579,
					0.12134367972612381,
					0.1316312700510025,
					1
				],
				"metallicFactor":0,
				"metallicRoughnessTexture":{
					"index":5
				}
			}
		},
		{
			"doubleSided":true,
			"name":"Material",
			"pbrMetallicRoughness":{
				"baseColorFactor":[
					0.800054669380188,
					0.012031877413392067,
					0.0033623534254729748,
					1
				],
				"metallicFactor":0,
				"roughnessFactor":0.5
			}
		}
	],
	"meshes":[
		{
			"name":"propylon-court-walls-geometry",
			"primitives":[
				{
					"attributes":{
						"POSITION":0,
						"NORMAL":1,
						"TEXCOORD_0":2,
						"TEXCOORD_1":3
					},
					"indices":4,
					"material":0
				}
			]
		},
		{
			"name":"Mesh.007",
			"primitives":[
				{
					"attributes":{
						"POSITION":5,
						"NORMAL":6,
						"TEXCOORD_0":7,
						"TEXCOORD_1":8
					},
					"indices":9,
					"material":1
				}
			]
		},
		{
			"name":"Cube",
			"primitives":[
				{
					"attributes":{
						"POSITION":10,
						"NORMAL":11,
						"TEXCOORD_0":12,
						"TEXCOORD_1":13
					},
					"indices":14,
					"material":2
				}
			]
		},
		{
			"name":"Curve.000",
			"primitives":[
				{
					"attributes":{
						"POSITION":15,
						"NORMAL":16,
						"TEXCOORD_0":17
					},
					"indices":18
				}
			]
		},
		{
			"name":"Cube.004",
			"primitives":[
				{
					"attributes":{
						"POSITION":19,
						"NORMAL":20
					},
					"indices":21
				}
			]
		},
		{
			"name":"Cube.002",
			"primitives":[
				{
					"attributes":{
						"POSITION":22,
						"NORMAL":23
					},
					"indices":21
				}
			]
		},
		{
			"name":"Cube.005",
			"primitives":[
				{
					"attributes":{
						"POSITION":24,
						"NORMAL":25
					},
					"indices":26
				}
			]
		},
		{
			"name":"Curve.003",
			"primitives":[
				{
					"attributes":{
						"POSITION":27,
						"NORMAL":28,
						"TEXCOORD_0":29,
						"TEXCOORD_1":30
					},
					"indices":31,
					"material":3
				}
			]
		},
		{
			"name":"polySurfaceShape44.002",
			"primitives":[
				{
					"attributes":{
						"POSITION":32,
						"NORMAL":33,
						"TEXCOORD_0":34
					},
					"indices":35
				}
			]
		},
		{
			"name":"Plane.001",
			"primitives":[
				{
					"attributes":{
						"POSITION":36,
						"NORMAL":37,
						"TEXCOORD_0":38,
						"TEXCOORD_1":39
					},
					"indices":40,
					"material":4
				}
			]
		},
		{
			"name":"Plane",
			"primitives":[
				{
					"attributes":{
						"POSITION":41,
						"NORMAL":42,
						"TEXCOORD_0":43,
						"TEXCOORD_1":44
					},
					"indices":40,
					"material":4
				}
			]
		},
		{
			"name":"Plane.002",
			"primitives":[
				{
					"attributes":{
						"POSITION":45,
						"NORMAL":46,
						"TEXCOORD_0":47,
						"TEXCOORD_1":48
					},
					"indices":40,
					"material":5
				}
			]
		}
	],
	"textures":[
		{
			"sampler":0,
			"source":0
		},
		{
			"sampler":0,
			"source":1
		},
		{
			"sampler":1,
			"source":2
		},
		{
			"sampler":1,
			"source":3
		},
		{
			"sampler":1,
			"source":4
		},
		{
			"sampler":0,
			"source":1
		}
	],
	"images":[
		{
			"mimeType":"image/png",
			"name":"propylon-court-walls_baked",
			"uri":"textures/propylon-court-walls_baked.png"
		},
		{
			"mimeType":"image/png",
			"name":"Global_Metal_metallicRoughness",
			"uri":"textures/Global_Metal_metallicRoughness.png"
		},
		{
			"mimeType":"image/png",
			"name":"propylon-court-floor_baked",
			"uri":"textures/propylon-court-floor_baked.png"
		},
		{
			"mimeType":"image/png",
			"name":"propylon-walls_baked",
			"uri":"textures/propylon-walls_baked.png"
		},
		{
			"mimeType":"image/png",
			"name":"propylon-cornice_baked",
			"uri":"textures/propylon-cornice_baked.png"
		}
	],
	"accessors":[
		{
			"bufferView":0,
			"componentType":5126,
			"count":61,
			"max":[
				16.321369171142578,
				9.560112953186035,
				-10.011860847473145
			],
			"min":[
				-16.321372985839844,
				-0.680579662322998,
				-41.240577697753906
			],
			"type":"VEC3"
		},
		{
			"bufferView":1,
			"componentType":5126,
			"count":61,
			"type":"VEC3"
		},
		{
			"bufferView":2,
			"componentType":5126,
			"count":61,
			"type":"VEC2"
		},
		{
			"bufferView":3,
			"componentType":5126,
			"count":61,
			"type":"VEC2"
		},
		{
			"bufferView":4,
			"componentType":5123,
			"count":129,
			"type":"SCALAR"
		},
		{
			"bufferView":5,
			"componentType":5126,
			"count":374,
			"max":[
				16.400362014770508,
				2.9349584579467773,
				6.697360515594482
			],
			"min":[
				-16.376670837402344,
				-0.6650433540344238,
				-41.274417877197266
			],
			"type":"VEC3"
		},
		{
			"bufferView":6,
			"componentType":5126,
			"count":374,
			"type":"VEC3"
		},
		{
			"bufferView":7,
			"componentType":5126,
			"count":374,
			"type":"VEC2"
		},
		{
			"bufferView":8,
			"componentType":5126,
			"count":374,
			"type":"VEC2"
		},
		{
			"bufferView":9,
			"componentType":5123,
			"count":570,
			"type":"SCALAR"
		},
		{
			"bufferView":10,
			"componentType":5126,
			"count":122,
			"max":[
				7.929975509643555,
				9.76419448852539,
				-3.294238567352295
			],
			"min":[
				-7.8729047775268555,
				3.1523139476776123,
				-10.05586051940918
			],
			"type":"VEC3"
		},
		{
			"bufferView":11,
			"componentType":5126,
			"count":122,
			"type":"VEC3"
		},
		{
			"bufferView":12,
			"componentType":5126,
			"count":122,
			"type":"VEC2"
		},
		{
			"bufferView":13,
			"componentType":5126,
			"count":122,
			"type":"VEC2"
		},
		{
			"bufferView":14,
			"componentType":5123,
			"count":246,
			"type":"SCALAR"
		},
		{
			"bufferView":15,
			"componentType":5126,
			"count":1384,
			"max":[
				16.919837951660156,
				8.136777877807617,
				-9.298755645751953
			],
			"min":[
				-16.890419006347656,
				7.4740705490112305,
				-41.861263275146484
			],
			"type":"VEC3"
		},
		{
			"bufferView":16,
			"componentType":5126,
			"count":1384,
			"type":"VEC3"
		},
		{
			"bufferView":17,
			"componentType":5126,
			"count":1384,
			"type":"VEC2"
		},
		{
			"bufferView":18,
			"componentType":5123,
			"count":2076,
			"type":"SCALAR"
		},
		{
			"bufferView":19,
			"componentType":5126,
			"count":9424,
			"max":[
				1.8912487030029297,
				0.509669303894043,
				0.9256281852722168
			],
			"min":[
				-47.05168151855469,
				0,
				-5.611589431762695
			],
			"type":"VEC3"
		},
		{
			"bufferView":20,
			"componentType":5126,
			"count":9424,
			"type":"VEC3"
		},
		{
			"bufferView":21,
			"componentType":5123,
			"count":18600,
			"type":"SCALAR"
		},
		{
			"bufferView":22,
			"componentType":5126,
			"count":9424,
			"max":[
				1.8912487030029297,
				0.509669303894043,
				0.9256281852722168
			],
			"min":[
				-47.05168151855469,
				0,
				-5.611589431762695
			],
			"type":"VEC3"
		},
		{
			"bufferView":23,
			"componentType":5126,
			"count":9424,
			"type":"VEC3"
		},
		{
			"bufferView":24,
			"componentType":5126,
			"count":6080,
			"max":[
				1.8912487030029297,
				0.509669303894043,
				0.9256281852722168
			],
			"min":[
				-4.4239678382873535,
				0,
				-31.760454177856445
			],
			"type":"VEC3"
		},
		{
			"bufferView":25,
			"componentType":5126,
			"count":6080,
			"type":"VEC3"
		},
		{
			"bufferView":26,
			"componentType":5123,
			"count":12000,
			"type":"SCALAR"
		},
		{
			"bufferView":27,
			"componentType":5126,
			"count":4988,
			"max":[
				8.495622634887695,
				13.162150382995605,
				0.8120520114898682
			],
			"min":[
				-8.483652114868164,
				9.76419448852539,
				-14.519330978393555
			],
			"type":"VEC3"
		},
		{
			"bufferView":28,
			"componentType":5126,
			"count":4988,
			"type":"VEC3"
		},
		{
			"bufferView":29,
			"componentType":5126,
			"count":4988,
			"type":"VEC2"
		},
		{
			"bufferView":30,
			"componentType":5126,
			"count":4988,
			"type":"VEC2"
		},
		{
			"bufferView":31,
			"componentType":5123,
			"count":7476,
			"type":"SCALAR"
		},
		{
			"bufferView":32,
			"componentType":5126,
			"count":12,
			"max":[
				16.437580108642578,
				9.546772956848145,
				-9.372602462768555
			],
			"min":[
				-16.323902130126953,
				8.063916206359863,
				-41.26554489135742
			],
			"type":"VEC3"
		},
		{
			"bufferView":33,
			"componentType":5126,
			"count":12,
			"type":"VEC3"
		},
		{
			"bufferView":34,
			"componentType":5126,
			"count":12,
			"type":"VEC2"
		},
		{
			"bufferView":35,
			"componentType":5123,
			"count":18,
			"type":"SCALAR"
		},
		{
			"bufferView":36,
			"componentType":5126,
			"count":4,
			"max":[
				194.0631103515625,
				0,
				194.0631103515625
			],
			"min":[
				-194.0631103515625,
				0,
				-194.0631103515625
			],
			"type":"VEC3"
		},
		{
			"bufferView":37,
			"componentType":5126,
			"count":4,
			"type":"VEC3"
		},
		{
			"bufferView":38,
			"componentType":5126,
			"count":4,
			"type":"VEC2"
		},
		{
			"bufferView":39,
			"componentType":5126,
			"count":4,
			"type":"VEC2"
		},
		{
			"bufferView":40,
			"componentType":5123,
			"count":6,
			"type":"SCALAR"
		},
		{
			"bufferView":41,
			"componentType":5126,
			"count":4,
			"max":[
				5734.4658203125,
				-7.04833984375,
				719.658203125
			],
			"min":[
				-1928.4991455078125,
				-7.04833984375,
				-6943.306640625
			],
			"type":"VEC3"
		},
		{
			"bufferView":42,
			"componentType":5126,
			"count":4,
			"type":"VEC3"
		},
		{
			"bufferView":43,
			"componentType":5126,
			"count":4,
			"type":"VEC2"
		},
		{
			"bufferView":44,
			"componentType":5126,
			"count":4,
			"type":"VEC2"
		},
		{
			"bufferView":45,
			"componentType":5126,
			"count":4,
			"max":[
				1,
				0,
				1
			],
			"min":[
				-1,
				0,
				-1
			],
			"type":"VEC3"
		},
		{
			"bufferView":46,
			"componentType":5126,
			"count":4,
			"type":"VEC3"
		},
		{
			"bufferView":47,
			"componentType":5126,
			"count":4,
			"type":"VEC2"
		},
		{
			"bufferView":48,
			"componentType":5126,
			"count":4,
			"type":"VEC2"
		}
	],
	"bufferViews":[
		{
			"buffer":0,
			"byteLength":732,
			"byteOffset":0,
			"target":34962
		},
		{
			"buffer":0,
			"byteLength":732,
			"byteOffset":732,
			"target":34962
		},
		{
			"buffer":0,
			"byteLength":488,
			"byteOffset":1464,
			"target":34962
		},
		{
			"buffer":0,
			"byteLength":488,
			"byteOffset":1952,
			"target":34962
		},
		{
			"buffer":0,
			"byteLength":258,
			"byteOffset":2440,
			"target":34963
		},
		{
			"buffer":0,
			"byteLength":4488,
			"byteOffset":2700,
			"target":34962
		},
		{
			"buffer":0,
			"byteLength":4488,
			"byteOffset":7188,
			"target":34962
		},
		{
			"buffer":0,
			"byteLength":2992,
			"byteOffset":11676,
			"target":34962
		},
		{
			"buffer":0,
			"byteLength":2992,
			"byteOffset":14668,
			"target":34962
		},
		{
			"buffer":0,
			"byteLength":1140,
			"byteOffset":17660,
			"target":34963
		},
		{
			"buffer":0,
			"byteLength":1464,
			"byteOffset":18800,
			"target":34962
		},
		{
			"buffer":0,
			"byteLength":1464,
			"byteOffset":20264,
			"target":34962
		},
		{
			"buffer":0,
			"byteLength":976,
			"byteOffset":21728,
			"target":34962
		},
		{
			"buffer":0,
			"byteLength":976,
			"byteOffset":22704,
			"target":34962
		},
		{
			"buffer":0,
			"byteLength":492,
			"byteOffset":23680,
			"target":34963
		},
		{
			"buffer":0,
			"byteLength":16608,
			"byteOffset":24172,
			"target":34962
		},
		{
			"buffer":0,
			"byteLength":16608,
			"byteOffset":40780,
			"target":34962
		},
		{
			"buffer":0,
			"byteLength":11072,
			"byteOffset":57388,
			"target":34962
		},
		{
			"buffer":0,
			"byteLength":4152,
			"byteOffset":68460,
			"target":34963
		},
		{
			"buffer":0,
			"byteLength":113088,
			"byteOffset":72612,
			"target":34962
		},
		{
			"buffer":0,
			"byteLength":113088,
			"byteOffset":185700,
			"target":34962
		},
		{
			"buffer":0,
			"byteLength":37200,
			"byteOffset":298788,
			"target":34963
		},
		{
			"buffer":0,
			"byteLength":113088,
			"byteOffset":335988,
			"target":34962
		},
		{
			"buffer":0,
			"byteLength":113088,
			"byteOffset":449076,
			"target":34962
		},
		{
			"buffer":0,
			"byteLength":72960,
			"byteOffset":562164,
			"target":34962
		},
		{
			"buffer":0,
			"byteLength":72960,
			"byteOffset":635124,
			"target":34962
		},
		{
			"buffer":0,
			"byteLength":24000,
			"byteOffset":708084,
			"target":34963
		},
		{
			"buffer":0,
			"byteLength":59856,
			"byteOffset":732084,
			"target":34962
		},
		{
			"buffer":0,
			"byteLength":59856,
			"byteOffset":791940,
			"target":34962
		},
		{
			"buffer":0,
			"byteLength":39904,
			"byteOffset":851796,
			"target":34962
		},
		{
			"buffer":0,
			"byteLength":39904,
			"byteOffset":891700,
			"target":34962
		},
		{
			"buffer":0,
			"byteLength":14952,
			"byteOffset":931604,
			"target":34963
		},
		{
			"buffer":0,
			"byteLength":144,
			"byteOffset":946556,
			"target":34962
		},
		{
			"buffer":0,
			"byteLength":144,
			"byteOffset":946700,
			"target":34962
		},
		{
			"buffer":0,
			"byteLength":96,
			"byteOffset":946844,
			"target":34962
		},
		{
			"buffer":0,
			"byteLength":36,
			"byteOffset":946940,
			"target":34963
		},
		{
			"buffer":0,
			"byteLength":48,
			"byteOffset":946976,
			"target":34962
		},
		{
			"buffer":0,
			"byteLength":48,
			"byteOffset":947024,
			"target":34962
		},
		{
			"buffer":0,
			"byteLength":32,
			"byteOffset":947072,
			"target":34962
		},
		{
			"buffer":0,
			"byteLength":32,
			"byteOffset":947104,
			"target":34962
		},
		{
			"buffer":0,
			"byteLength":12,
			"byteOffset":947136,
			"target":34963
		},
		{
			"buffer":0,
			"byteLength":48,
			"byteOffset":947148,
			"target":34962
		},
		{
			"buffer":0,
			"byteLength":48,
			"byteOffset":947196,
			"target":34962
		},
		{
			"buffer":0,
			"byteLength":32,
			"byteOffset":947244,
			"target":34962
		},
		{
			"buffer":0,
			"byteLength":32,
			"byteOffset":947276,
			"target":34962
		},
		{
			"buffer":0,
			"byteLength":48,
			"byteOffset":947308,
			"target":34962
		},
		{
			"buffer":0,
			"byteLength":48,
			"byteOffset":947356,
			"target":34962
		},
		{
			"buffer":0,
			"byteLength":32,
			"byteOffset":947404,
			"target":34962
		},
		{
			"buffer":0,
			"byteLength":32,
			"byteOffset":947436,
			"target":34962
		}
	],
	"samplers":[
		{
			"magFilter":9729,
			"minFilter":9987
		},
		{
			"magFilter":9729,
			"minFilter":9987,
			"wrapS":33071,
			"wrapT":33071
		}
	],
	"buffers":[
		{
			"byteLength":947468,
			"uri":"asklepieion-propylon.bin"
		}
	]
}
