{
	"asset":{
		"generator":"Khronos glTF Blender I/O v4.0.43",
		"version":"2.0"
	},
	"scene":0,
	"scenes":[
		{
			"extras":{
				"sun_pos_properties":{
					"day_of_year":157,
					"sun_object":{
						"name":"Light",
						"type":"Object"
					},
					"object_collection":{}
				},
				"dynamic_sky_name":"Dynamic_1",
				"TLM_SceneProperties":{},
				"TLM_EngineProperties":{
					"tlm_quality":3
				},
				"TLM_Buildstat":[
					"0.0 hours 27.0 mins 32.5 seconds"
				]
			},
			"name":"Scene",
			"nodes":[
				0,
				1,
				2
			]
		}
	],
	"nodes":[
		{
			"extras":{
				"TLM_ObjectProperties":{
					"tlm_mesh_lightmap_use":1,
					"tlm_mesh_lightmap_resolution":5,
					"tlm_mesh_lightmap_unwrap_mode":0
				},
				"TLM_PrevMatArray":[
					"propylon-court-floor.001"
				]
			},
			"mesh":0,
			"name":"propylon-court-floor"
		},
		{
			"extras":{
				"TLM_ObjectProperties":{
					"tlm_mesh_lightmap_use":1,
					"tlm_mesh_lightmap_resolution":5,
					"tlm_mesh_lightmap_unwrap_mode":0
				},
				"TLM_PrevMatArray":[
					"propylon-walls.002"
				]
			},
			"mesh":1,
			"name":"propylon-walls"
		},
		{
			"extras":{
				"TLM_ObjectProperties":{
					"tlm_mesh_lightmap_use":1,
					"tlm_mesh_lightmap_resolution":5,
					"tlm_mesh_lightmap_unwrap_mode":0
				},
				"TLM_PrevMatArray":[
					"propylon-cornice.002"
				]
			},
			"mesh":2,
			"name":"propylon-cornice"
		}
	],
	"materials":[
		{
			"doubleSided":true,
			"name":"propylon-court-floor.001",
			"pbrMetallicRoughness":{
				"baseColorTexture":{
					"index":0,
					"texCoord":1
				},
				"metallicFactor":0,
				"roughnessFactor":0.5
			}
		},
		{
			"doubleSided":true,
			"name":"propylon-walls.002",
			"pbrMetallicRoughness":{
				"baseColorTexture":{
					"index":1,
					"texCoord":1
				},
				"metallicFactor":0,
				"roughnessFactor":0.5
			}
		},
		{
			"doubleSided":true,
			"name":"propylon-cornice.002",
			"pbrMetallicRoughness":{
				"baseColorTexture":{
					"index":2,
					"texCoord":1
				},
				"metallicFactor":0,
				"roughnessFactor":0.5
			}
		}
	],
	"meshes":[
		{
			"name":"Mesh.007",
			"primitives":[
				{
					"attributes":{
						"POSITION":0,
						"TEXCOORD_0":1,
						"TEXCOORD_1":2
					},
					"indices":3,
					"material":0
				}
			]
		},
		{
			"name":"Cube",
			"primitives":[
				{
					"attributes":{
						"POSITION":4,
						"TEXCOORD_0":5,
						"TEXCOORD_1":6
					},
					"indices":7,
					"material":1
				}
			]
		},
		{
			"name":"Curve.003",
			"primitives":[
				{
					"attributes":{
						"POSITION":8,
						"TEXCOORD_0":9,
						"TEXCOORD_1":10
					},
					"indices":11,
					"material":2
				}
			]
		}
	],
	"textures":[
		{
			"sampler":0,
			"source":0
		},
		{
			"sampler":0,
			"source":1
		},
		{
			"sampler":0,
			"source":2
		}
	],
	"images":[
		{
			"mimeType":"image/png",
			"name":"propylon-court-floor_baked",
			"uri":"propylon-court-floor_baked.png"
		},
		{
			"mimeType":"image/png",
			"name":"propylon-walls_baked",
			"uri":"propylon-walls_baked.png"
		},
		{
			"mimeType":"image/png",
			"name":"propylon-cornice_baked",
			"uri":"propylon-cornice_baked.png"
		}
	],
	"accessors":[
		{
			"bufferView":0,
			"componentType":5126,
			"count":374,
			"max":[
				16.400362014770508,
				2.9349584579467773,
				6.697360515594482
			],
			"min":[
				-16.376670837402344,
				-0.6650433540344238,
				-41.274417877197266
			],
			"type":"VEC3"
		},
		{
			"bufferView":1,
			"componentType":5126,
			"count":374,
			"type":"VEC2"
		},
		{
			"bufferView":2,
			"componentType":5126,
			"count":374,
			"type":"VEC2"
		},
		{
			"bufferView":3,
			"componentType":5123,
			"count":570,
			"type":"SCALAR"
		},
		{
			"bufferView":4,
			"componentType":5126,
			"count":122,
			"max":[
				7.929975509643555,
				9.76419448852539,
				-3.294238567352295
			],
			"min":[
				-7.8729047775268555,
				3.1523139476776123,
				-10.05586051940918
			],
			"type":"VEC3"
		},
		{
			"bufferView":5,
			"componentType":5126,
			"count":122,
			"type":"VEC2"
		},
		{
			"bufferView":6,
			"componentType":5126,
			"count":122,
			"type":"VEC2"
		},
		{
			"bufferView":7,
			"componentType":5123,
			"count":246,
			"type":"SCALAR"
		},
		{
			"bufferView":8,
			"componentType":5126,
			"count":4988,
			"max":[
				8.495622634887695,
				13.162150382995605,
				0.8120520114898682
			],
			"min":[
				-8.483652114868164,
				9.76419448852539,
				-14.519330978393555
			],
			"type":"VEC3"
		},
		{
			"bufferView":9,
			"componentType":5126,
			"count":4988,
			"type":"VEC2"
		},
		{
			"bufferView":10,
			"componentType":5126,
			"count":4988,
			"type":"VEC2"
		},
		{
			"bufferView":11,
			"componentType":5123,
			"count":7476,
			"type":"SCALAR"
		}
	],
	"bufferViews":[
		{
			"buffer":0,
			"byteLength":4488,
			"byteOffset":0,
			"target":34962
		},
		{
			"buffer":0,
			"byteLength":2992,
			"byteOffset":4488,
			"target":34962
		},
		{
			"buffer":0,
			"byteLength":2992,
			"byteOffset":7480,
			"target":34962
		},
		{
			"buffer":0,
			"byteLength":1140,
			"byteOffset":10472,
			"target":34963
		},
		{
			"buffer":0,
			"byteLength":1464,
			"byteOffset":11612,
			"target":34962
		},
		{
			"buffer":0,
			"byteLength":976,
			"byteOffset":13076,
			"target":34962
		},
		{
			"buffer":0,
			"byteLength":976,
			"byteOffset":14052,
			"target":34962
		},
		{
			"buffer":0,
			"byteLength":492,
			"byteOffset":15028,
			"target":34963
		},
		{
			"buffer":0,
			"byteLength":59856,
			"byteOffset":15520,
			"target":34962
		},
		{
			"buffer":0,
			"byteLength":39904,
			"byteOffset":75376,
			"target":34962
		},
		{
			"buffer":0,
			"byteLength":39904,
			"byteOffset":115280,
			"target":34962
		},
		{
			"buffer":0,
			"byteLength":14952,
			"byteOffset":155184,
			"target":34963
		}
	],
	"samplers":[
		{
			"magFilter":9729,
			"minFilter":9987,
			"wrapS":33071,
			"wrapT":33071
		}
	],
	"buffers":[
		{
			"byteLength":170136,
			"uri":"asklepieion.bin"
		}
	]
}
